HIERARCHY
ROOT Hips
{
  OFFSET -102.467 93.6631 130.069
  CHANNELS 6 Xposition Yposition Zposition Zrotation Xrotation Yrotation
  JOINT LeftUpLeg
  {
    OFFSET 8.64259 1.95398 -2.38835
    CHANNELS 3 Zrotation Xrotation Yrotation
    JOINT LeftLeg
    {
      OFFSET 43.7702 0 0
      CHANNELS 3 Zrotation Xrotation Yrotation
      JOINT LeftFoot
      {
        OFFSET 40.6238 0 0
        CHANNELS 3 Zrotation Xrotation Yrotation
        JOINT LeftToeBase
        {
          OFFSET 12.7242 0 0
          CHANNELS 3 Zrotation Xrotation Yrotation
          End Site
          {
            OFFSET 0 0 0
          }
        }
      }
    }
  }
  JOINT RightUpLeg
  {
    OFFSET -8.2249 1.95398 -2.59336
    CHANNELS 3 Zrotation Xrotation Yrotation
    JOINT RightLeg
    {
      OFFSET 43.5653 0 0
      CHANNELS 3 Zrotation Xrotation Yrotation
      JOINT RightFoot
      {
        OFFSET 40.6238 0 0
        CHANNELS 3 Zrotation Xrotation Yrotation
        JOINT RightToeBase
        {
          OFFSET 12.7242 0 0
          CHANNELS 3 Zrotation Xrotation Yrotation
          End Site
          {
            OFFSET 0 0 0
          }
        }
      }
    }
  }
  JOINT Spine
  {
    OFFSET 0.165834 0.87714 6.61349
    CHANNELS 3 Zrotation Xrotation Yrotation
    JOINT Spine1
    {
      OFFSET 7.38963 1.71661e-005 0
      CHANNELS 3 Zrotation Xrotation Yrotation
      JOINT Spine2
      {
        OFFSET 11.9445 1.14441e-005 0
        CHANNELS 3 Zrotation Xrotation Yrotation
        JOINT Spine3
        {
          OFFSET 14.7254 4.19617e-005 0
          CHANNELS 3 Zrotation Xrotation Yrotation
          JOINT Spine4
          {
            OFFSET 10.9679 0 0
            CHANNELS 3 Zrotation Xrotation Yrotation
            JOINT RightShoulder
            {
              OFFSET 2.46616 -1.6653 3.69651
              CHANNELS 3 Zrotation Xrotation Yrotation
              JOINT RightArm
              {
                OFFSET 13.0012 0 0
                CHANNELS 3 Zrotation Xrotation Yrotation
                JOINT RightForeArm
                {
                  OFFSET 28.7848 1.52588e-005 0
                  CHANNELS 3 Zrotation Xrotation Yrotation
                  JOINT RightHand
                  {
                    OFFSET 26.5688 1.52588e-005 0
                    CHANNELS 3 Zrotation Xrotation Yrotation
                    End Site
                    {
                      OFFSET 0 0 0
                    }
                  }
                }
              }
            }
            JOINT LeftShoulder
            {
              OFFSET 2.38034 -1.29275 -3.7523
              CHANNELS 3 Zrotation Xrotation Yrotation
              JOINT LeftArm
              {
                OFFSET 16.3182 6.10351e-005 0
                CHANNELS 3 Zrotation Xrotation Yrotation
                JOINT LeftForeArm
                {
                  OFFSET 27.0901 0 0
                  CHANNELS 3 Zrotation Xrotation Yrotation
                  JOINT LeftHand
                  {
                    OFFSET 24.5451 1.52588e-005 0
                    CHANNELS 3 Zrotation Xrotation Yrotation
                    End Site
                    {
                      OFFSET 0 0 0
                    }
                  }
                }
              }
            }
            JOINT Neck
            {
              OFFSET 5.0226 -0.0266342 0
              CHANNELS 3 Zrotation Xrotation Yrotation
              JOINT Head
              {
                OFFSET 6.69363 2.86102e-005 0
                CHANNELS 3 Zrotation Xrotation Yrotation
                End Site
                {
                  OFFSET 0 0 0
                }
              }
            }
          }
        }
      }
    }
  }
}
MOTION
Frames:	6
Frame Time:	0.0416667
-69.6076 84.6313 136.598 -69.5877 -58.4514 -88.6178 178.639 19.2323 89.7775 -46.4062 27.7374 4.76218 65.0119 6.38225 8.6992 76.1602 2.38106 16.3259 172.872 57.6804 89.1839 -108.568 -20.1878 -3.31614 44.4687 10.7645 9.84046 29.6652 -0.492011 -0.565969 -0.759297 10.1651 -89.1897 6.57209 -1.17306 1.66511 -5.09917 -1.09863 1.71508 -27.6361 -1.61937 1.2356 -7.62346 -1.61937 1.23558 99.2642 -55.4494 -86.4127 33.6279 -13.1297 12.1991 -6.41046 -20.1665 -19.2479 -1.3215 -0.0694532 -3.28712 -90.3917 -52.304 78.4043 4.13614 -6.69131 -50.1665 6.23614 -11.3622 -71.5452 11.3891 -0.863523 -10.7456 31.136 -4.64581 -1.17191 -18.6807 -3.64567 -2.3083 
-92.9017 90.4948 159.674 -71.3303 -50.7279 -80.3971 -178.041 -6.99214 93.9715 -35.2307 29.8578 9.99687 45.8952 -7.17645 -1.7892 60.055 0.280238 11.0364 174.598 62.4301 94.3418 -60.4033 -14.9969 0.972251 53.9026 7.46391 9.51534 34.9324 0.0293805 7.01444 -1.18809 9.78406 -90.01 7.30642 -2.37667 0.0886635 -4.3624 -2.37048 0.193236 -26.9139 -2.29338 -0.63011 -6.90126 -2.29339 -0.630102 95.2826 -51.0109 -92.7693 38.7656 -9.39196 33.6682 -3.41448 -7.7534 -20.7073 -0.25937 -0.0263512 -5.98876 -86.1836 -51.6419 84.4458 5.14376 -8.57724 -36.356 8.0354 -2.86701 -89.0438 14.3544 -0.667546 -8.28603 24.6292 -0.0985142 -8.39177 -18.7157 1.67799 8.99959 
-116.555 90.7924 182.747 -80.5504 -45.2591 -86.2923 178.907 -4.79153 93.4985 -82.0869 14.8311 5.65814 44.1215 -6.80172 -0.202736 54.9239 -0.100003 9.9764 173.755 45.2938 93.2486 -28.869 -9.71602 5.13713 47.5872 11.2173 11.8683 41.1552 -2.66475 1.16202 -1.07064 10.1225 -90.0172 6.6294 -2.14581 0.0478516 -5.03978 -2.14164 0.142285 -27.5884 -2.06096 -0.599546 -7.57573 -2.06096 -0.59955 96.2032 -53.8662 -91.0358 37.9871 -8.94823 29.8433 3.43228 9.9227 -24.7778 0.490109 -0.053433 -7.76538 -87.6078 -56.7639 83.1632 0.760584 2.70574 -25.4999 1.90471 -3.32705 -47.9982 11.0102 -0.968225 -11.8407 20.1414 2.06021 -9.49688 -16.5908 3.44915 13.9966 
-139.934 87.0137 204.673 -84.1529 -40.003 -81.463 175.43 21.542 100.723 -122.341 9.13842 2.0818 43.5597 -2.91504 8.47824 48.9903 -2.19703 0.919161 167.424 33.5599 103.467 -53.5973 -17.0849 8.73947 66.8513 -0.146523 5.05219 29.3368 0.252554 2.4889 -0.503423 9.99197 -90.8523 6.87152 -1.37041 -1.61415 -4.7998 -1.44012 -1.55229 -27.3278 -0.822105 -1.95126 -7.31511 -0.822097 -1.95127 98.9948 -57.0494 -86.7202 27.719 -10.0747 6.2264 12.0219 21.9373 -34.0313 0.882337 -0.0632229 -7.80652 -88.0302 -64.5569 83.7354 -5.23574 9.27062 -10.0738 0.369906 22.5217 -14.0672 2.38927 -0.171033 -6.82126 30.9363 4.59354 -8.34063 -25.8776 5.45365 12.2783 
-165.47 85.953 227.412 -83.3925 -33.4275 -80.5841 170.253 50.2368 98.4558 -105.884 8.68925 2.95057 49.4261 0.206468 12.8194 49.7294 -1.52892 3.81187 176.214 8.9517 88.644 -45.7011 -16.4542 3.46218 71.7169 -0.591012 8.17309 45.9199 -1.49181 9.43667 1.03076 8.88127 -90.7412 9.14731 1.72392 -1.63929 -2.52379 1.6501 -1.71356 -25.0646 2.13708 -1.04536 -5.05193 2.13708 -1.04537 103.653 -52.2601 -79.9099 22.7104 -10.4878 -6.04762 6.29678 14.1295 -54.4825 -2.30242 -0.112464 -9.82348 -90.3851 -59.8001 79.8461 -18.0373 13.2112 13.7559 -1.2409 34.7058 -11.5019 0.640579 -0.151398 -6.73141 18.551 1.81582 -4.50057 -16.2839 2.44941 6.92165 
-192.806 88.7377 250.148 -83.274 -33.5685 -83.4462 176.014 46.8227 92.3581 -40.6603 12.5228 2.50896 46.7153 -4.65528 6.96743 49.2565 -2.31072 0.603372 177.681 -15.349 95.2484 -31.5022 -14.8799 -1.71172 45.2145 12.1418 13.7109 24.9369 1.34134 -0.682926 2.13865 8.58316 -90.6955 9.73324 3.94806 -1.67497 -1.93303 3.87053 -1.84731 -24.5152 4.26862 -0.409032 -4.50252 4.26862 -0.40904 109.252 -38.6889 -69.2198 39.3531 3.84369 1.34713 -8.85326 0.37489 -90.4908 10.0712 1.41361 6.04302 -92.6092 -57.855 76.4422 -17.7919 15.4766 19.5497 3.22689 23.5261 -21.9814 -0.459687 -0.144715 -7.63763 16.3601 -0.480003 13.2126 -18.1773 -2.64637 -11.5469 
